<svg id='Spider_24' width='24' height='24' viewBox='0 0 24 24' xmlns='http://www.w3.org/2000/svg' xmlns:xlink='http://www.w3.org/1999/xlink'><rect width='24' height='24' stroke='none' fill='#000000' opacity='0'/>


<g transform="matrix(0.67 0 0 0.67 12 12)" >
<g style="" >
<g transform="matrix(1 0 0 1 -5.75 -9.25)" >
<path style="stroke: none; stroke-width: 1; stroke-dasharray: none; stroke-linecap: butt; stroke-dashoffset: 0; stroke-linejoin: miter; stroke-miterlimit: 4; fill: rgb(122,79,52); fill-rule: nonzero; opacity: 1;" transform=" translate(-9.25, -5.75)" d="M 13 10.5 C 12.9 10.5 12.8 10.5 12.7 10.4 L 8.1 6.8 L 5.1 1.7999999999999998 C 4.9 1.5 5 1.2 5.2 1.1 C 5.5 0.9 5.8 1 5.9 1.2 L 8.9 6.1000000000000005 L 13.3 9.5 C 13.5 9.7 13.600000000000001 10 13.4 10.2 C 13.3 10.4 13.1 10.5 13 10.5 z" stroke-linecap="round" />
</g>
<g transform="matrix(1 0 0 1 -6.5 -5.03)" >
<path style="stroke: none; stroke-width: 1; stroke-dasharray: none; stroke-linecap: butt; stroke-dashoffset: 0; stroke-linejoin: miter; stroke-miterlimit: 4; fill: rgb(122,79,52); fill-rule: nonzero; opacity: 1;" transform=" translate(-8.5, -9.97)" d="M 15.5 12 L 6.4 12 L 1.2 8.9 C 1 8.8 0.9 8.5 1.1 8.2 C 1.3000000000000003 7.899999999999999 1.5 7.8999999999999995 1.8 7.999999999999999 L 6.6 11 L 15.5 11 C 15.8 11 16 11.2 16 11.5 C 16 11.8 15.8 12 15.5 12 z" stroke-linecap="round" />
</g>
<g transform="matrix(1 0 0 1 -1.99 0.03)" >
<path style="stroke: none; stroke-width: 1; stroke-dasharray: none; stroke-linecap: butt; stroke-dashoffset: 0; stroke-linejoin: miter; stroke-miterlimit: 4; fill: rgb(122,79,52); fill-rule: nonzero; opacity: 1;" transform=" translate(-13.01, -15.03)" d="M 1.5 19 C 1.3 19 1.1 18.9 1 18.7 C 0.9 18.4 1.1 18.2 1.3 18.099999999999998 L 7.2 16.099999999999998 L 14.7 11.599999999999998 C 14.899999999999999 11.499999999999998 15.2 11.499999999999998 15.399999999999999 11.799999999999997 C 15.499999999999998 11.999999999999996 15.499999999999998 12.299999999999997 15.2 12.499999999999996 L 7.7 17 L 1.7000000000000002 19 C 1.6 19 1.6 19 1.5 19 z M 5.5 29 C 5.5 29 5.4 29 5.5 29 C 5.1 28.9 5 28.7 5 28.4 L 6 22.2 L 11.1 17.1 C 11.299999999999999 16.900000000000002 11.6 16.900000000000002 11.799999999999999 17.1 C 11.999999999999998 17.3 11.999999999999998 17.6 11.799999999999999 17.8 L 7 22.7 L 6 28.5 C 6 28.8 5.7 29 5.5 29 z M 17 10.5 C 16.9 10.5 16.7 10.4 16.6 10.3 C 16.400000000000002 10.100000000000001 16.5 9.8 16.700000000000003 9.600000000000001 L 21.1 6.200000000000001 L 24.1 1.3000000000000007 C 24.200000000000003 1.1000000000000008 24.6 1.0000000000000007 24.8 1.1000000000000008 C 25 1.2000000000000008 25.1 1.5000000000000009 25 1.8000000000000007 L 21.9 6.9 L 17.4 10.4 C 17.2 10.5 17.1 10.5 17 10.5 z" stroke-linecap="round" />
</g>
<g transform="matrix(1 0 0 1 6.53 -4.98)" >
<path style="stroke: none; stroke-width: 1; stroke-dasharray: none; stroke-linecap: butt; stroke-dashoffset: 0; stroke-linejoin: miter; stroke-miterlimit: 4; fill: rgb(122,79,52); fill-rule: nonzero; opacity: 1;" transform=" translate(-21.53, -10.02)" d="M 23.6 12 L 14.500000000000002 12 C 14.200000000000001 12 14.000000000000002 11.8 14.000000000000002 11.5 C 14.000000000000002 11.2 14.200000000000001 11 14.500000000000002 11 L 23.400000000000002 11 L 28.300000000000004 8.1 C 28.500000000000004 8 28.800000000000004 8 29.000000000000004 8.299999999999999 C 29.100000000000005 8.499999999999998 29.100000000000005 8.799999999999999 28.800000000000004 8.999999999999998 L 23.6 12 z" stroke-linecap="round" />
</g>
<g transform="matrix(1 0 0 1 5.47 1.5)" >
<path style="stroke: none; stroke-width: 1; stroke-dasharray: none; stroke-linecap: butt; stroke-dashoffset: 0; stroke-linejoin: miter; stroke-miterlimit: 4; fill: rgb(122,79,52); fill-rule: nonzero; opacity: 1;" transform=" translate(-20.47, -16.5)" d="M 28.5 19 C 28.4 19 28.4 19 28.3 19 L 22.200000000000003 17 L 14.700000000000003 12.5 C 14.500000000000004 12.4 14.400000000000002 12.1 14.500000000000004 11.8 C 14.600000000000003 11.600000000000001 14.900000000000004 11.5 15.200000000000003 11.600000000000001 L 22.700000000000003 16.1 L 28.6 18.1 C 28.900000000000002 18.200000000000003 29 18.5 28.900000000000002 18.700000000000003 C 28.9 18.9 28.7 19 28.5 19 z M 24.5 29 C 24.3 29 24 28.8 24 28.6 L 23 22.8 L 18.1 17.9 C 17.900000000000002 17.7 17.900000000000002 17.4 18.1 17.2 C 18.3 17 18.6 17 18.8 17.2 L 23.9 22.299999999999997 L 24.9 28.499999999999996 C 25 28.7 24.9 28.9 24.5 29 C 24.6 29 24.5 29 24.5 29 z M 14 4 C 12.8 4.4 12 5.5 12 6.8 C 12 8.1 12.8 9.2 14 9.6 L 14 4 z M 16 4 L 16 9.6 C 17.2 9.2 18 8.1 18 6.8 C 18 5.5 17.2 4.4 16 4 z" stroke-linecap="round" />
</g>
<g transform="matrix(1 0 0 1 0 3.5)" >
<path style="stroke: none; stroke-width: 1; stroke-dasharray: none; stroke-linecap: butt; stroke-dashoffset: 0; stroke-linejoin: miter; stroke-miterlimit: 4; fill: rgb(214,170,112); fill-rule: nonzero; opacity: 1;" transform=" translate(-15, -18.5)" d="M 15 24.5 C 11.4 24.5 9.5 20.1 9.5 17 C 9.5 13.7 12.3 12.5 15 12.5 C 17.7 12.5 20.5 13.7 20.5 17 C 20.5 20.1 18.6 24.5 15 24.5 z" stroke-linecap="round" />
</g>
<g transform="matrix(1 0 0 1 0 3.5)" >
<path style="stroke: none; stroke-width: 1; stroke-dasharray: none; stroke-linecap: butt; stroke-dashoffset: 0; stroke-linejoin: miter; stroke-miterlimit: 4; fill: rgb(122,79,52); fill-rule: nonzero; opacity: 1;" transform=" translate(-15, -18.5)" d="M 15 13 C 17.4 13 20 14.1 20 17 C 20 19.9 18.3 24 15 24 C 11.7 24 10 19.9 10 17 C 10 14.1 12.6 13 15 13 M 15 12 C 11.7 12 9 13.7 9 17 C 9 20.3 11 25 15 25 C 19 25 21 20.3 21 17 C 21 13.7 18.3 12 15 12 L 15 12 z" stroke-linecap="round" />
</g>
<g transform="matrix(1 0 0 1 0 -5.5)" >
<path style="stroke: none; stroke-width: 1; stroke-dasharray: none; stroke-linecap: butt; stroke-dashoffset: 0; stroke-linejoin: miter; stroke-miterlimit: 4; fill: rgb(166,113,78); fill-rule: nonzero; opacity: 1;" transform=" translate(-15, -9.5)" d="M 15 12.5 C 13.3 12.5 12.5 11.3 12.5 8.8 C 12.5 7.1000000000000005 13.8 6.500000000000001 15 6.500000000000001 C 16.2 6.500000000000001 17.5 7.1000000000000005 17.5 8.8 C 17.5 12.1 16.1 12.5 15 12.5 z" stroke-linecap="round" />
</g>
<g transform="matrix(1 0 0 1 0 -5.5)" >
<path style="stroke: none; stroke-width: 1; stroke-dasharray: none; stroke-linecap: butt; stroke-dashoffset: 0; stroke-linejoin: miter; stroke-miterlimit: 4; fill: rgb(122,79,52); fill-rule: nonzero; opacity: 1;" transform=" translate(-15, -9.5)" d="M 15 7 C 15.6 7 17 7.2 17 8.8 C 17 12 15.6 12 15 12 C 14 12 13 11.6 13 8.8 C 13 7.2 14.4 7 15 7 M 15 6 C 13.3 6 12 6.9 12 8.8 C 12 10.700000000000001 12.3 13 15 13 C 17.6 13 18 10.6 18 8.8 C 18 7.000000000000002 16.7 6 15 6 L 15 6 z" stroke-linecap="round" />
</g>
</g>
</g>
</svg>